<svg width="1336" height="370" viewBox="0 0 1336 370" fill="none" xmlns="http://www.w3.org/2000/svg">
<rect width="1336" height="370" rx="185" fill="white"/>
<path d="M367.8 219.768C362.68 219.768 357.944 218.936 353.592 217.272C349.304 215.544 345.56 213.144 342.36 210.072C339.224 206.936 336.76 203.288 334.968 199.128C333.176 194.968 332.28 190.392 332.28 185.4C332.28 180.408 333.176 175.832 334.968 171.672C336.76 167.512 339.256 163.896 342.456 160.824C345.656 157.688 349.4 155.288 353.688 153.624C358.04 151.896 362.776 151.032 367.896 151.032C373.08 151.032 377.848 151.928 382.2 153.72C386.616 155.448 390.36 158.04 393.432 161.496L387.192 167.544C384.632 164.856 381.752 162.872 378.552 161.592C375.352 160.248 371.928 159.576 368.28 159.576C364.504 159.576 360.984 160.216 357.72 161.496C354.52 162.776 351.736 164.568 349.368 166.872C347 169.176 345.144 171.928 343.8 175.128C342.52 178.264 341.88 181.688 341.88 185.4C341.88 189.112 342.52 192.568 343.8 195.768C345.144 198.904 347 201.624 349.368 203.928C351.736 206.232 354.52 208.024 357.72 209.304C360.984 210.584 364.504 211.224 368.28 211.224C371.928 211.224 375.352 210.584 378.552 209.304C381.752 207.96 384.632 205.912 387.192 203.16L393.432 209.208C390.36 212.664 386.616 215.288 382.2 217.08C377.848 218.872 373.048 219.768 367.8 219.768ZM425.419 219.576C420.299 219.576 415.755 218.456 411.787 216.216C407.819 213.976 404.683 210.904 402.379 207C400.075 203.032 398.923 198.552 398.923 193.56C398.923 188.504 400.075 184.024 402.379 180.12C404.683 176.216 407.819 173.176 411.787 171C415.755 168.76 420.299 167.64 425.419 167.64C430.475 167.64 434.987 168.76 438.955 171C442.987 173.176 446.123 176.216 448.363 180.12C450.667 183.96 451.819 188.44 451.819 193.56C451.819 198.616 450.667 203.096 448.363 207C446.123 210.904 442.987 213.976 438.955 216.216C434.987 218.456 430.475 219.576 425.419 219.576ZM425.419 211.512C428.683 211.512 431.595 210.776 434.155 209.304C436.779 207.832 438.827 205.752 440.299 203.064C441.771 200.312 442.507 197.144 442.507 193.56C442.507 189.912 441.771 186.776 440.299 184.152C438.827 181.464 436.779 179.384 434.155 177.912C431.595 176.44 428.683 175.704 425.419 175.704C422.155 175.704 419.243 176.44 416.683 177.912C414.123 179.384 412.075 181.464 410.539 184.152C409.003 186.776 408.235 189.912 408.235 193.56C408.235 197.144 409.003 200.312 410.539 203.064C412.075 205.752 414.123 207.832 416.683 209.304C419.243 210.776 422.155 211.512 425.419 211.512ZM528.212 167.64C532.308 167.64 535.924 168.44 539.06 170.04C542.196 171.64 544.628 174.072 546.356 177.336C548.148 180.6 549.044 184.728 549.044 189.72V219H539.828V190.776C539.828 185.848 538.676 182.136 536.372 179.64C534.068 177.144 530.836 175.896 526.676 175.896C523.604 175.896 520.916 176.536 518.612 177.816C516.308 179.096 514.516 180.984 513.236 183.48C512.02 185.976 511.412 189.08 511.412 192.792V219H502.196V190.776C502.196 185.848 501.044 182.136 498.74 179.64C496.5 177.144 493.268 175.896 489.044 175.896C486.036 175.896 483.38 176.536 481.076 177.816C478.772 179.096 476.98 180.984 475.7 183.48C474.42 185.976 473.78 189.08 473.78 192.792V219H464.564V168.12H473.396V181.656L471.956 178.2C473.556 174.872 476.02 172.28 479.348 170.424C482.676 168.568 486.548 167.64 490.964 167.64C495.828 167.64 500.02 168.856 503.54 171.288C507.06 173.656 509.364 177.272 510.452 182.136L506.708 180.6C508.244 176.696 510.932 173.56 514.772 171.192C518.612 168.824 523.092 167.64 528.212 167.64ZM566.002 219V168.12H575.218V219H566.002ZM570.61 158.328C568.818 158.328 567.314 157.752 566.098 156.6C564.946 155.448 564.37 154.04 564.37 152.376C564.37 150.648 564.946 149.208 566.098 148.056C567.314 146.904 568.818 146.328 570.61 146.328C572.402 146.328 573.874 146.904 575.026 148.056C576.242 149.144 576.85 150.52 576.85 152.184C576.85 153.912 576.274 155.384 575.122 156.6C573.97 157.752 572.466 158.328 570.61 158.328ZM619.982 167.64C624.142 167.64 627.79 168.44 630.926 170.04C634.126 171.64 636.622 174.072 638.414 177.336C640.206 180.6 641.102 184.728 641.102 189.72V219H631.886V190.776C631.886 185.848 630.67 182.136 628.238 179.64C625.87 177.144 622.51 175.896 618.158 175.896C614.894 175.896 612.046 176.536 609.614 177.816C607.182 179.096 605.294 180.984 603.95 183.48C602.67 185.976 602.03 189.08 602.03 192.792V219H592.814V168.12H601.646V181.848L600.206 178.2C601.87 174.872 604.43 172.28 607.886 170.424C611.342 168.568 615.374 167.64 619.982 167.64ZM680.43 238.2C675.758 238.2 671.214 237.528 666.798 236.184C662.446 234.904 658.894 233.048 656.142 230.616L660.558 223.512C662.926 225.56 665.838 227.16 669.294 228.312C672.75 229.528 676.366 230.136 680.142 230.136C686.158 230.136 690.574 228.728 693.39 225.912C696.206 223.096 697.614 218.808 697.614 213.048V202.296L698.574 192.216L698.094 182.04V168.12H706.83V212.088C706.83 221.048 704.59 227.64 700.11 231.864C695.63 236.088 689.07 238.2 680.43 238.2ZM679.278 216.888C674.35 216.888 669.934 215.864 666.03 213.816C662.19 211.704 659.118 208.792 656.814 205.08C654.574 201.368 653.454 197.08 653.454 192.216C653.454 187.288 654.574 183 656.814 179.352C659.118 175.64 662.19 172.76 666.03 170.712C669.934 168.664 674.35 167.64 679.278 167.64C683.63 167.64 687.598 168.536 691.182 170.328C694.766 172.056 697.614 174.744 699.726 178.392C701.902 182.04 702.99 186.648 702.99 192.216C702.99 197.72 701.902 202.296 699.726 205.944C697.614 209.592 694.766 212.344 691.182 214.2C687.598 215.992 683.63 216.888 679.278 216.888ZM680.334 208.824C683.726 208.824 686.734 208.12 689.358 206.712C691.982 205.304 694.03 203.352 695.502 200.856C697.038 198.36 697.806 195.48 697.806 192.216C697.806 188.952 697.038 186.072 695.502 183.576C694.03 181.08 691.982 179.16 689.358 177.816C686.734 176.408 683.726 175.704 680.334 175.704C676.942 175.704 673.902 176.408 671.214 177.816C668.59 179.16 666.51 181.08 664.974 183.576C663.502 186.072 662.766 188.952 662.766 192.216C662.766 195.48 663.502 198.36 664.974 200.856C666.51 203.352 668.59 205.304 671.214 206.712C673.902 208.12 676.942 208.824 680.334 208.824ZM771.148 219.768C766.028 219.768 761.132 219 756.46 217.464C751.788 215.864 748.108 213.816 745.42 211.32L748.972 203.832C751.532 206.072 754.796 207.928 758.764 209.4C762.732 210.872 766.86 211.608 771.148 211.608C775.052 211.608 778.22 211.16 780.652 210.264C783.084 209.368 784.876 208.152 786.028 206.616C787.18 205.016 787.756 203.224 787.756 201.24C787.756 198.936 786.988 197.08 785.452 195.672C783.98 194.264 782.028 193.144 779.596 192.312C777.228 191.416 774.604 190.648 771.724 190.008C768.844 189.368 765.932 188.632 762.988 187.8C760.108 186.904 757.452 185.784 755.02 184.44C752.652 183.096 750.732 181.304 749.26 179.064C747.788 176.76 747.052 173.816 747.052 170.232C747.052 166.776 747.948 163.608 749.74 160.728C751.596 157.784 754.412 155.448 758.188 153.72C762.028 151.928 766.892 151.032 772.78 151.032C776.684 151.032 780.556 151.544 784.396 152.568C788.236 153.592 791.564 155.064 794.38 156.984L791.212 164.664C788.332 162.744 785.292 161.368 782.092 160.536C778.892 159.64 775.788 159.192 772.78 159.192C769.004 159.192 765.9 159.672 763.468 160.632C761.036 161.592 759.244 162.872 758.092 164.472C757.004 166.072 756.46 167.864 756.46 169.848C756.46 172.216 757.196 174.104 758.668 175.512C760.204 176.92 762.156 178.04 764.524 178.872C766.956 179.704 769.612 180.472 772.492 181.176C775.372 181.816 778.252 182.552 781.132 183.384C784.076 184.216 786.732 185.304 789.1 186.648C791.532 187.992 793.484 189.784 794.956 192.024C796.428 194.264 797.164 197.144 797.164 200.664C797.164 204.056 796.236 207.224 794.38 210.168C792.524 213.048 789.644 215.384 785.74 217.176C781.9 218.904 777.036 219.768 771.148 219.768ZM831.637 219.576C826.517 219.576 821.973 218.456 818.005 216.216C814.037 213.976 810.901 210.904 808.597 207C806.293 203.032 805.141 198.552 805.141 193.56C805.141 188.504 806.293 184.024 808.597 180.12C810.901 176.216 814.037 173.176 818.005 171C821.973 168.76 826.517 167.64 831.637 167.64C836.693 167.64 841.205 168.76 845.173 171C849.205 173.176 852.341 176.216 854.581 180.12C856.885 183.96 858.037 188.44 858.037 193.56C858.037 198.616 856.885 203.096 854.581 207C852.341 210.904 849.205 213.976 845.173 216.216C841.205 218.456 836.693 219.576 831.637 219.576ZM831.637 211.512C834.901 211.512 837.813 210.776 840.373 209.304C842.997 207.832 845.045 205.752 846.517 203.064C847.989 200.312 848.725 197.144 848.725 193.56C848.725 189.912 847.989 186.776 846.517 184.152C845.045 181.464 842.997 179.384 840.373 177.912C837.813 176.44 834.901 175.704 831.637 175.704C828.373 175.704 825.461 176.44 822.901 177.912C820.341 179.384 818.293 181.464 816.757 184.152C815.221 186.776 814.453 189.912 814.453 193.56C814.453 197.144 815.221 200.312 816.757 203.064C818.293 205.752 820.341 207.832 822.901 209.304C825.461 210.776 828.373 211.512 831.637 211.512ZM892.575 219.576C887.455 219.576 882.911 218.456 878.943 216.216C874.975 213.976 871.839 210.904 869.535 207C867.231 203.032 866.079 198.552 866.079 193.56C866.079 188.504 867.231 184.024 869.535 180.12C871.839 176.216 874.975 173.176 878.943 171C882.911 168.76 887.455 167.64 892.575 167.64C897.631 167.64 902.143 168.76 906.111 171C910.143 173.176 913.279 176.216 915.519 180.12C917.823 183.96 918.975 188.44 918.975 193.56C918.975 198.616 917.823 203.096 915.519 207C913.279 210.904 910.143 213.976 906.111 216.216C902.143 218.456 897.631 219.576 892.575 219.576ZM892.575 211.512C895.839 211.512 898.751 210.776 901.311 209.304C903.935 207.832 905.983 205.752 907.455 203.064C908.927 200.312 909.663 197.144 909.663 193.56C909.663 189.912 908.927 186.776 907.455 184.152C905.983 181.464 903.935 179.384 901.311 177.912C898.751 176.44 895.839 175.704 892.575 175.704C889.311 175.704 886.399 176.44 883.839 177.912C881.279 179.384 879.231 181.464 877.695 184.152C876.159 186.776 875.391 189.912 875.391 193.56C875.391 197.144 876.159 200.312 877.695 203.064C879.231 205.752 881.279 207.832 883.839 209.304C886.399 210.776 889.311 211.512 892.575 211.512ZM958.888 167.64C963.048 167.64 966.696 168.44 969.832 170.04C973.032 171.64 975.528 174.072 977.32 177.336C979.112 180.6 980.008 184.728 980.008 189.72V219H970.792V190.776C970.792 185.848 969.576 182.136 967.144 179.64C964.776 177.144 961.416 175.896 957.064 175.896C953.8 175.896 950.952 176.536 948.52 177.816C946.088 179.096 944.2 180.984 942.856 183.48C941.576 185.976 940.936 189.08 940.936 192.792V219H931.72V168.12H940.552V181.848L939.112 178.2C940.776 174.872 943.336 172.28 946.792 170.424C950.248 168.568 954.28 167.64 958.888 167.64Z" fill="black"/>
</svg>
