<svg width="88" height="88" viewBox="0 0 88 88" fill="none" xmlns="http://www.w3.org/2000/svg">
<path d="M12.4117 66C10.725 66 9.31577 65.4353 8.18399 64.306C7.05222 63.1767 6.48633 61.7674 6.48633 60.0783V27.9217C6.48633 26.235 7.05222 24.827 8.18399 23.6977C9.31333 22.5659 10.7225 22 12.4117 22H44.5647C46.2513 22 47.6605 22.5659 48.7923 23.6977C49.9217 24.827 50.4863 26.235 50.4863 27.9217V60.0783C50.4863 61.765 49.9217 63.173 48.7923 64.3023C47.6605 65.4341 46.2513 66 44.5647 66H12.4117ZM12.4117 62.3333H44.5647C45.1269 62.3333 45.6439 62.0987 46.1157 61.6293C46.585 61.1576 46.8197 60.6406 46.8197 60.0783V27.9217C46.8197 27.3594 46.585 26.8424 46.1157 26.3707C45.6463 25.9013 45.1293 25.6667 44.5647 25.6667H12.408C11.8458 25.6667 11.33 25.9013 10.8607 26.3707C10.3889 26.8424 10.153 27.3594 10.153 27.9217V60.0783C10.153 60.6406 10.3889 61.1576 10.8607 61.6293C11.33 62.0987 11.847 62.3333 12.4117 62.3333ZM15.5137 54.1567H41.4627L33.6197 43.5783L26.653 52.745L21.5197 45.9617L15.5137 54.1567ZM62.3333 66V22H66V66H62.3333ZM77.8433 66V22H81.51V66H77.8433Z" fill="white"/>
</svg>
